<?xml version="1.0" encoding="UTF-8"?>
<!DOCTYPE svg PUBLIC "-//W3C//DTD SVG 1.1//EN" "http://www.w3.org/Graphics/SVG/1.1/DTD/svg11.dtd">
<svg xmlns="http://www.w3.org/2000/svg" style="background: transparent; background-color: transparent; color-scheme: light dark;" xmlns:xlink="http://www.w3.org/1999/xlink" version="1.1" width="477px" height="220px" viewBox="0 0 477 220"><defs><linearGradient x1="0%" y1="0%" x2="100%" y2="0%" id="drawio-svg-AYoAsh8EaIvUHorX0HDs-gradient-_dedede-1-_999999-1-e-0"><stop offset="0%" stop-color="#DEDEDE" stop-opacity="1" style="stop-color: rgb(222, 222, 222); stop-opacity: 1;"/><stop offset="100%" stop-color="#999999" stop-opacity="1" style="stop-color: rgb(153, 153, 153); stop-opacity: 1;"/></linearGradient><linearGradient x1="0%" y1="0%" x2="100%" y2="0%" id="drawio-svg-AYoAsh8EaIvUHorX0HDs-gradient-_dedede-1-_b8b9bb-1-e-0"><stop offset="0%" stop-color="#DEDEDE" stop-opacity="1" style="stop-color: rgb(222, 222, 222); stop-opacity: 1;"/><stop offset="100%" stop-color="#B8B9BB" stop-opacity="1" style="stop-color: rgb(184, 185, 187); stop-opacity: 1;"/></linearGradient><linearGradient x1="0%" y1="0%" x2="0%" y2="100%" id="drawio-svg-AYoAsh8EaIvUHorX0HDs-gradient-_e9e9e9-1-_e9e9e9-1-s-0"><stop offset="0%" stop-color="#E9E9E9" stop-opacity="1" style="stop-color: rgb(233, 233, 233); stop-opacity: 1;"/><stop offset="100%" stop-color="#E9E9E9" stop-opacity="1" style="stop-color: rgb(233, 233, 233); stop-opacity: 1;"/></linearGradient></defs><g><g data-cell-id="0"><g data-cell-id="1"><g data-cell-id="je8eL0h919zHjBTrbrzz-31"><g/><g data-cell-id="je8eL0h919zHjBTrbrzz-5"><g><rect x="312.44" y="189" width="48.97" height="20" fill="#1a1a1a" stroke="none" pointer-events="all" style="fill: rgb(26, 26, 26);"/></g></g><g data-cell-id="je8eL0h919zHjBTrbrzz-2"><g><path d="M 0 207 L 23 185 L 453 185 L 476 207 Z" fill="#1a1a1a" stroke="none" transform="rotate(-180,238,196)" pointer-events="all" style="fill: rgb(26, 26, 26);"/></g></g><g data-cell-id="je8eL0h919zHjBTrbrzz-3"><g><rect x="30.36" y="193" width="49.64" height="26" rx="5.2" ry="5.2" fill="#1a1a1a" stroke="none" pointer-events="all" style="fill: rgb(26, 26, 26);"/></g></g><g data-cell-id="je8eL0h919zHjBTrbrzz-4"><g><rect x="397" y="193" width="49.64" height="26" rx="5.2" ry="5.2" fill="#1a1a1a" stroke="none" pointer-events="all" style="fill: rgb(26, 26, 26);"/></g></g></g><g data-cell-id="tbtwrWH3rKVskmzlnbiF-1"><g><rect x="0" y="-0.16" width="476" height="197.16" fill="#dedede" stroke="none" pointer-events="all" style="fill: rgb(222, 222, 222);"/></g></g><g data-cell-id="tbtwrWH3rKVskmzlnbiF-17"><g transform="translate(0.5,0.5)"><ellipse cx="74" cy="124.99" rx="4" ry="4" fill="#000000" stroke="none" pointer-events="all" style="fill: rgb(0, 0, 0);"/></g></g><g data-cell-id="je8eL0h919zHjBTrbrzz-9"><g><rect x="0" y="0" width="10" height="197.16" fill="url(#drawio-svg-AYoAsh8EaIvUHorX0HDs-gradient-_dedede-1-_999999-1-e-0)" stroke="none" transform="rotate(-180,5,98.58)" pointer-events="all" style="fill: url(&quot;#drawio-svg-AYoAsh8EaIvUHorX0HDs-gradient-_dedede-1-_999999-1-e-0&quot;);"/></g></g><g data-cell-id="je8eL0h919zHjBTrbrzz-8"><g><rect x="14" y="0" width="16" height="197.16" fill="url(#drawio-svg-AYoAsh8EaIvUHorX0HDs-gradient-_dedede-1-_b8b9bb-1-e-0)" stroke="none" pointer-events="all" style="fill: url(&quot;#drawio-svg-AYoAsh8EaIvUHorX0HDs-gradient-_dedede-1-_b8b9bb-1-e-0&quot;);"/></g></g><g data-cell-id="je8eL0h919zHjBTrbrzz-10"><g><rect x="30" y="0" width="26" height="197.16" fill="url(#drawio-svg-AYoAsh8EaIvUHorX0HDs-gradient-_dedede-1-_b8b9bb-1-e-0)" stroke="none" transform="rotate(-180,43,98.58)" pointer-events="all" style="fill: url(&quot;#drawio-svg-AYoAsh8EaIvUHorX0HDs-gradient-_dedede-1-_b8b9bb-1-e-0&quot;);"/></g></g><g data-cell-id="je8eL0h919zHjBTrbrzz-14"><g/><g data-cell-id="je8eL0h919zHjBTrbrzz-11"><g><rect x="466" y="0" width="10" height="197.16" fill="url(#drawio-svg-AYoAsh8EaIvUHorX0HDs-gradient-_dedede-1-_999999-1-e-0)" stroke="none" transform="rotate(-360,471,98.58)" pointer-events="all" style="fill: url(&quot;#drawio-svg-AYoAsh8EaIvUHorX0HDs-gradient-_dedede-1-_999999-1-e-0&quot;);"/></g></g><g data-cell-id="je8eL0h919zHjBTrbrzz-12"><g><rect x="446" y="0" width="16" height="197.16" fill="url(#drawio-svg-AYoAsh8EaIvUHorX0HDs-gradient-_dedede-1-_b8b9bb-1-e-0)" stroke="none" transform="rotate(-180,454,98.58)" pointer-events="all" style="fill: url(&quot;#drawio-svg-AYoAsh8EaIvUHorX0HDs-gradient-_dedede-1-_b8b9bb-1-e-0&quot;);"/></g></g><g data-cell-id="je8eL0h919zHjBTrbrzz-13"><g><rect x="420" y="0" width="26" height="197.16" fill="url(#drawio-svg-AYoAsh8EaIvUHorX0HDs-gradient-_dedede-1-_b8b9bb-1-e-0)" stroke="none" transform="rotate(-360,433,98.58)" pointer-events="all" style="fill: url(&quot;#drawio-svg-AYoAsh8EaIvUHorX0HDs-gradient-_dedede-1-_b8b9bb-1-e-0&quot;);"/></g></g></g><g data-cell-id="je8eL0h919zHjBTrbrzz-25"><g/><g data-cell-id="tbtwrWH3rKVskmzlnbiF-5"><g transform="translate(0.5,0.5)"><ellipse cx="123.5" cy="132.5" rx="17.499999999999996" ry="17.499999999999996" fill="#dedede" stroke="#000000" stroke-width="0.5" pointer-events="all" style="fill: rgb(222, 222, 222); stroke: light-dark(rgb(0, 0, 0), rgb(255, 255, 255));"/></g></g><g data-cell-id="je8eL0h919zHjBTrbrzz-19"><g transform="translate(0.5,0.5)"><ellipse cx="123.5" cy="132.5" rx="15.838575852599186" ry="15.838575852599186" fill="#e9e9e9" stroke="#000000" stroke-width="0.5" pointer-events="all" style="fill: rgb(233, 233, 233); stroke: light-dark(rgb(0, 0, 0), rgb(255, 255, 255));"/></g></g><g data-cell-id="je8eL0h919zHjBTrbrzz-18"><g transform="translate(0.5,0.5)"><ellipse cx="123.5" cy="132.5" rx="12.504138830999356" ry="12.504138830999356" fill="#22eff6" stroke="none" pointer-events="all" style="fill: rgb(34, 239, 246);"/></g></g><g data-cell-id="je8eL0h919zHjBTrbrzz-17"><g><path d="M 123.44 132.18 C 124.31 132.18 124.92 131.57 124.92 130.76 L 124.92 124.96 C 124.92 124.2 124.4 123.5 123.54 123.5 C 122.68 123.5 122.08 124.19 122.08 124.82 L 122.08 130.77 C 122.08 131.56 122.75 132.18 123.44 132.18 Z M 123.45 141.5 C 128.07 141.5 131.88 137.8 131.88 133.23 C 131.88 130.92 131.05 128.33 128.51 126.46 C 128.05 126.09 127.1 126.28 126.67 126.85 C 126.28 127.43 126.25 128.26 126.89 128.86 C 128.15 129.87 128.98 131.45 128.98 133.08 C 128.98 136.24 126.28 138.59 123.57 138.59 C 120.9 138.59 118.23 136.64 118.04 133.16 C 118 131.76 118.8 129.77 120.2 128.79 C 120.68 128.4 120.87 127.5 120.28 126.81 C 119.72 126.09 118.81 126.22 118.42 126.52 C 116.26 128.28 115.22 130.25 115.17 132.98 C 115.17 138.04 119.02 141.5 123.45 141.5 Z M 123.5 147 C 115.24 147 109 140.3 109 132.44 C 109 124.54 115.49 118 123.64 118 C 131.12 118 138 124.05 138 132.41 C 138 141.14 131.02 147 123.5 147 Z" fill="url(#drawio-svg-AYoAsh8EaIvUHorX0HDs-gradient-_e9e9e9-1-_e9e9e9-1-s-0)" stroke="none" pointer-events="all" style="fill: url(&quot;#drawio-svg-AYoAsh8EaIvUHorX0HDs-gradient-_e9e9e9-1-_e9e9e9-1-s-0&quot;);"/></g></g></g><g data-cell-id="je8eL0h919zHjBTrbrzz-28"><g transform="translate(0.5,0.5)"><ellipse cx="173.5" cy="132.5" rx="15.838575852599186" ry="15.838575852599186" fill="#dedede" stroke="#999999" stroke-width="0.5" pointer-events="all" style="fill: rgb(222, 222, 222); stroke: rgb(153, 153, 153);"/></g></g><g data-cell-id="je8eL0h919zHjBTrbrzz-34"><g><rect x="218.5" y="121.34" width="58" height="22.5" rx="3.38" ry="3.38" fill="#dedede" stroke="#000000" pointer-events="all" style="fill: rgb(222, 222, 222); stroke: light-dark(rgb(0, 0, 0), rgb(255, 255, 255));"/></g></g><g data-cell-id="tbtwrWH3rKVskmzlnbiF-22"><g transform="translate(0.5,0.5)"><rect x="220" y="122.91" width="55" height="19.19" rx="1.92" ry="1.92" fill="#333333" stroke="#000000" stroke-width="0.15" pointer-events="all" style="fill: rgb(51, 51, 51); stroke: light-dark(rgb(0, 0, 0), rgb(255, 255, 255));"/></g></g><g data-cell-id="tbtwrWH3rKVskmzlnbiF-23"><g><rect x="224.23" y="132.5" width="46.54" height="4.8" fill="#0066cc" stroke="none" pointer-events="all" style="fill: rgb(0, 102, 204);"/></g></g><g data-cell-id="je8eL0h919zHjBTrbrzz-35"><g><rect x="305" y="121.5" width="58" height="22.5" rx="3.38" ry="3.38" fill="#dedede" stroke="#000000" pointer-events="all" style="fill: rgb(222, 222, 222); stroke: light-dark(rgb(0, 0, 0), rgb(255, 255, 255));"/></g></g><g data-cell-id="je8eL0h919zHjBTrbrzz-36"><g transform="translate(0.5,0.5)"><rect x="306.5" y="123.07" width="55" height="19.19" rx="1.92" ry="1.92" fill="#333333" stroke="#000000" stroke-width="0.15" pointer-events="all" style="fill: rgb(51, 51, 51); stroke: light-dark(rgb(0, 0, 0), rgb(255, 255, 255));"/></g></g><g data-cell-id="je8eL0h919zHjBTrbrzz-37"><g><rect x="310.73" y="132.66" width="46.54" height="4.8" fill="#0066cc" stroke="none" pointer-events="all" style="fill: rgb(0, 102, 204);"/></g></g><g data-cell-id="je8eL0h919zHjBTrbrzz-16"><g transform="translate(0.5,0.5)"><ellipse cx="173.5" cy="132.34" rx="10" ry="10" fill="#4d4d4d" stroke="#666666" stroke-width="0.5" pointer-events="all" style="fill: rgb(77, 77, 77); stroke: rgb(102, 102, 102);"/></g></g><g data-cell-id="je8eL0h919zHjBTrbrzz-38"><g transform="translate(0.5,0.5)"><ellipse cx="173.5" cy="132.34" rx="7.5" ry="7.5" fill="none" stroke="#999999" stroke-width="2" pointer-events="all" style="stroke: rgb(153, 153, 153);"/></g></g><g data-cell-id="je8eL0h919zHjBTrbrzz-39"><g transform="translate(0.5,0.5)"><ellipse cx="404" cy="124.99" rx="4" ry="4" fill="#000000" stroke="none" pointer-events="all" style="fill: rgb(0, 0, 0);"/></g></g></g></g></g></svg>